<?xml version="1.0" encoding="utf-8"?>
<!-- Generator: Adobe Illustrator 26.2.1, SVG Export Plug-In . SVG Version: 6.00 Build 0)  -->
<svg version="1.1" id="Слой_1" xmlns="http://www.w3.org/2000/svg" xmlns:xlink="http://www.w3.org/1999/xlink" x="0px" y="0px"
	 viewBox="0 0 283.46 283.46" style="enable-background:new 0 0 283.46 283.46;" xml:space="preserve">
<style type="text/css">
	.st0{fill:#0D6EFD;}
</style>
<g>
	<path class="st0" d="M178.75,101.6c0.48,0.01,0.97,0.03,1.45,0.03c9.07,0,18.14-0.01,27.21,0.01c0.94,0,1.9,0.05,2.82,0.24
		c4.07,0.86,6.86,3.99,7.61,7.53c0.15,0.73,0.23,1.48,0.35,2.22c0.43,0.26,0.9,0.28,1.33,0.36c3.89,0.65,7.24,3.93,7.89,7.91
		c0.1,0.59,0.18,1.2,0.18,1.8c0.01,14.73,0.02,29.46,0,44.19c0,4.78-3.27,8.44-7.19,9.49c-0.84,0.23-1.69,0.39-2.56,0.39
		c-1.51-0.01-3.02,0-4.62,0c0.04-0.24,0.04-0.43,0.11-0.57c0.53-1,1.11-1.98,1.62-2.98c0.26-0.51,0.63-0.69,1.18-0.69
		c0.75,0,1.52,0.01,2.26-0.09c2.35-0.33,3.92-1.66,4.68-3.9c0.19-0.56,0.23-1.18,0.3-1.78c0.04-0.33,0.01-0.68,0.01-1.02
		c0-13.97,0-27.95-0.01-41.92c0-0.71-0.04-1.44-0.15-2.14c-0.35-2.13-2.1-3.96-4.19-4.44c-0.15-0.03-0.3-0.04-0.45-0.03
		c-0.11,0.01-0.21,0.06-0.36,0.1c-0.04,0.21-0.11,0.42-0.13,0.64c-0.02,0.38-0.01,0.75-0.01,1.13c0,6.95,0,13.9,0,20.85
		c0,0.36,0,0.73,0,1.35c-0.2-0.36-0.28-0.47-0.34-0.6c-0.86-1.81-1.91-3.52-3.19-5.07c-0.49-0.59-0.69-1.19-0.69-1.95
		c0.03-4.91,0.01-9.82,0.01-14.73c0-0.34,0.01-0.68-0.01-1.02c-0.04-0.63-0.18-0.77-0.84-0.82c-0.41-0.03-0.83-0.02-1.25-0.02
		c-11.91,0-23.81,0-35.72,0c-0.42,0-0.83,0-1.25-0.03c-0.38-0.03-0.54-0.21-0.57-0.58c-0.02-0.3-0.02-0.6-0.02-0.91
		c0-2.38,0-4.76,0-7.14c0-0.41-0.03-0.82-0.04-1.15c-0.38-0.38-0.78-0.28-1.15-0.28c-2.27-0.01-4.54,0-6.8-0.01
		c-0.3,0-0.61,0.01-0.91-0.01c-0.44-0.03-0.58-0.17-0.61-0.64c-0.02-0.34-0.01-0.68-0.01-1.02c0-11.82,0-23.64,0-35.46
		c0-0.52-0.02-1.05-0.03-1.6c-0.28-0.09-0.48-0.18-0.69-0.21c-0.3-0.03-0.6-0.02-0.91-0.02c-12.74,0-25.48,0-38.21-0.01
		c-1.08,0-2.1,0.16-3.06,0.67c-1.89,1.01-2.86,2.62-3.06,4.72c-0.04,0.45-0.01,0.91-0.01,1.36c0,13.52,0,27.04,0,40.56
		c0,0.38,0.01,0.76-0.02,1.13c-0.02,0.37-0.19,0.55-0.56,0.58c-0.45,0.04-0.91,0.03-1.36,0.03c-13.38,0-26.76,0-40.14,0.01
		c-0.68,0-1.36,0.05-2.04,0.09c-2.35,0.14-4.68,2.31-4.89,4.88c-0.05,0.64-0.11,1.28-0.11,1.92c-0.01,12.2-0.01,24.4,0,36.59
		c0,0.3-0.01,0.61,0.01,0.91c0.05,0.74,0.2,0.88,0.99,0.91c0.34,0.02,0.68,0.01,1.02,0.01c11.94,0,23.89,0,35.83,0
		c0.52,0,1.05-0.07,1.54,0.11c0.31,0.4,0.21,0.83,0.21,1.23c0.01,2.45,0,4.91,0.01,7.36c0,0.41-0.06,0.83,0.16,1.21
		c0.46,0.29,0.96,0.23,1.45,0.23c2.15,0.01,4.31,0,6.46,0.01c0.41,0,0.83-0.06,1.28,0.18c0.04,0.17,0.13,0.38,0.14,0.59
		c0.03,0.38,0.01,0.75,0.01,1.13c0,11.71,0,23.41,0,35.12c0,0.45,0.01,0.91,0.05,1.36c0.02,0.25,0.2,0.42,0.45,0.44
		c0.38,0.03,0.75,0.04,1.13,0.04c7.71,0,15.42,0,23.13,0c5.06,0,10.13-0.09,15.19,0.03c3.61,0.09,6.3-2.86,6.03-6.03
		c-0.02-0.25,0.03-0.51,0.05-0.79c0.17,0.02,0.29,0,0.38,0.05c1.02,0.57,2.04,1.15,3.05,1.74c0.69,0.41,0.77,0.6,0.59,1.4
		c-0.53,2.37-1.71,4.34-3.65,5.82c-1.6,1.23-3.4,1.94-5.44,2c-0.53,0.02-1.06,0.03-1.59,0.03c-12.47,0-24.95,0-37.42,0
		c-0.6,0-1.21-0.07-1.75,0.17c-0.24,0.31-0.19,0.61-0.14,0.91c0.42,2.72,2.71,4.75,5.47,4.85c0.3,0.01,0.6,0.01,0.91,0.01
		c14.21,0,28.42,0,42.64,0c0.76,0,1.5-0.02,2.25-0.21c2.34-0.61,4.16-2.87,4.16-5.32c0-2.11,0-4.23,0-6.34
		c0-0.37,0.03-0.74,0.05-1.12c1.34-0.32,2.61-0.62,3.92-0.93c0.27,0.13,0.24,0.42,0.24,0.67c0.01,0.94,0.01,1.89,0.01,2.83
		c0,1.62-0.04,3.25,0,4.87c0.11,4.22-2.97,8.6-7.89,9.61c-0.26,0.05-0.52,0.08-0.78,0.1c-0.53,0.02-1.06,0.03-1.59,0.03
		c-14.48,0-28.95,0-43.43,0c-0.94,0-1.88-0.01-2.81-0.24c-4.04-1.01-7.12-4.62-7.39-8.75c-0.07-1.01-0.15-1.11-1.11-1.22
		c-3.82-0.45-7.27-3.51-8.19-7.46c-0.2-0.86-0.23-1.72-0.23-2.58c0-6.5,0-12.99,0-19.49c0-2.61,0.01-5.21-0.01-7.82
		c0-0.44,0.11-0.92-0.26-1.3c-0.46-0.2-0.96-0.11-1.45-0.12c-9.22-0.01-18.45-0.01-27.67,0c-1.11,0-2.19-0.1-3.24-0.45
		c-3.85-1.29-6.17-3.93-6.87-7.95c-0.08-0.48-0.16-0.97-0.23-1.45c-0.01-0.04-0.03-0.07-0.07-0.17c-0.17-0.05-0.37-0.15-0.58-0.18
		c-2.36-0.35-4.4-1.3-6.05-3.05c-1.44-1.53-2.35-3.32-2.59-5.42c-0.09-0.79-0.16-1.58-0.16-2.37c-0.01-14.12,0-28.25-0.01-42.37
		c0-1.03,0.08-2.04,0.3-3.03c0.96-4.25,4.53-7.12,8.24-7.54c0.75-0.08,1.5-0.16,2.26-0.16c12.17-0.01,24.34-0.01,36.51-0.01
		c0.42,0,0.83,0.01,1.25-0.02c0.38-0.02,0.55-0.18,0.58-0.56c0.04-0.45,0.04-0.9,0.04-1.36c0-12.24,0-24.47,0-36.71
		c0-0.87-0.01-1.73,0.2-2.59c0.98-3.95,3.45-6.43,7.36-7.52c0.82-0.23,1.64-0.23,2.47-0.23c10.88,0,21.77,0,32.65,0
		c3.82,0,7.64-0.01,11.45,0c4.69,0.01,8.71,3.31,9.62,7.89c0.1,0.52,0.1,1.05,0.18,1.57c0.08,0.51,0.23,0.62,0.73,0.72
		c0.63,0.12,1.28,0.19,1.88,0.4c3.67,1.24,5.91,3.8,6.73,7.57c0.17,0.76,0.13,1.58,0.13,2.37c0.01,7.25,0.01,14.5,0.01,21.75
		c0,1.74,0,3.47,0,5.21C178.46,100.58,178.4,101.04,178.75,101.6z M114.3,111.69c0.36-0.47,0.24-1.02,0.24-1.54
		c0.01-7.93,0-15.86,0-23.79c0-4.38,0-8.76,0-13.14c0-0.72-0.03-1.45,0.09-2.15c0.79-4.69,4.3-7.3,7.38-8.03
		c0.97-0.23,1.95-0.24,2.93-0.24c12.55,0,25.09,0,37.64,0c0.42,0,0.83,0.01,1.25-0.02c0.25-0.02,0.5-0.1,0.71-0.15
		c0.24-0.42,0.19-0.8,0.1-1.16c-0.54-2.29-1.92-3.81-4.21-4.42c-0.61-0.16-1.27-0.22-1.9-0.22c-14.32-0.01-28.65-0.01-42.97,0
		c-0.6,0-1.21,0.06-1.79,0.19c-2.32,0.51-3.75,1.96-4.36,4.25c-0.18,0.67-0.17,1.34-0.17,2.02c0,13.59,0,27.19,0,40.78
		c0,0.38,0.01,0.76-0.01,1.13c-0.01,0.21-0.08,0.42-0.12,0.62c-0.5,0.22-0.95,0.13-1.4,0.13c-13.6,0-27.21,0-40.81,0
		c-0.42,0-0.83,0-1.25,0c-3.19-0.01-5.54,2.9-5.44,5.41c0.01,0.34,0,0.68,0,1.02c0,14.2,0,28.39,0,42.59c0,0.38,0.01,0.76,0.01,1.13
		c0.01,1.88,1.42,4.25,4.08,5.02c0.32,0.09,0.66,0.17,1.02-0.11c0.13-0.48,0.08-1.01,0.08-1.53c0-12.35,0-24.69,0.01-37.04
		c0-0.75,0.04-1.51,0.17-2.25c0.69-4.02,3.01-6.65,6.86-7.95c1.01-0.34,2.06-0.44,3.12-0.44c12.4,0.01,24.79,0.01,37.19,0
		C113.25,111.81,113.79,111.91,114.3,111.69z M69.88,165.62c-0.17,0.81-0.17,1.11-0.07,1.57c0.54,2.25,2.47,3.97,4.78,4.24
		c0.56,0.07,1.13,0.09,1.7,0.1c9,0.01,17.99,0,26.99,0c0.34,0,0.68,0,1.02-0.03c0.56-0.06,0.71-0.21,0.72-0.8
		c0.02-1.21,0.02-2.42,0.01-3.63c0-1.46-0.02-1.48-1.44-1.48c-10.85,0-21.7,0-32.54,0C70.68,165.58,70.31,165.61,69.88,165.62z
		 M213.72,111.69c0.03-0.24,0.1-0.42,0.08-0.6c-0.19-2.29-1.75-4.2-3.95-4.9c-0.67-0.21-1.34-0.22-2.01-0.22
		c-9.29,0-18.59,0-27.88,0c-0.23,0-0.45-0.01-0.68,0.01c-0.22,0.02-0.43,0.07-0.7,0.12c-0.24,1.61-0.09,3.19-0.1,4.76
		c0,0.28,0.12,0.57,0.19,0.9c0.44,0.02,0.81,0.05,1.18,0.05C192.83,111.9,212.79,111.84,213.72,111.69z M174.19,101.43
		c0.01-0.53,0.04-1.01,0.04-1.5c0-8.91,0-17.81,0-26.72c0-0.23,0-0.45,0-0.68c-0.05-2.36-1.6-4.48-3.85-5.21
		c-0.38-0.12-0.78-0.29-1.21-0.13c-0.29,0.51-0.22,1.04-0.22,1.56c0,10.38,0,20.76,0,31.14c0,0.3-0.01,0.61,0.02,0.9
		c0.03,0.25,0.12,0.49,0.18,0.71C170.35,101.7,173.23,101.67,174.19,101.43z M114.31,175.86c-0.29-0.03-0.55-0.08-0.81-0.08
		c-0.94-0.01-1.89-0.01-2.83,0c-1.42,0-1.44,0.01-1.44,1.46c0,9.05,0,18.1,0.01,27.15c0,0.56,0.06,1.13,0.19,1.68
		c0.57,2.25,2.03,3.64,4.27,4.21c0.55,0.14,0.77-0.03,0.82-0.61c0.03-0.34,0.02-0.68,0.02-1.02c0-10.37,0-20.74,0-31.11
		c0-0.34,0.01-0.68-0.02-1.02C114.49,176.3,114.39,176.09,114.31,175.86z"/>
	<path class="st0" d="M174.58,145.1c0.22-0.34,0.38-0.54,0.49-0.76c0.48-0.9,0.89-1.84,1.42-2.7c3.06-5.05,7.56-8.11,13.31-9.13
		c9.94-1.77,19.3,4.15,22.12,13.9c0.83,2.86,1.11,5.78,0.88,8.74c-0.25,3.14-1.01,6.17-2.1,9.12c-2.21,5.99-5.45,11.36-9.62,16.17
		c-4.88,5.63-10.51,10.41-16.84,14.37c-2.47,1.54-4.95,3.05-7.43,4.57c-1.62,1-3.31,1.06-4.95,0.13c-3.68-2.09-7.41-4.09-10.9-6.5
		c-7.47-5.15-13.75-11.44-18.4-19.27c-2.34-3.95-4.21-8.1-5.36-12.56c-0.73-2.8-1.02-5.63-0.94-8.52c0.06-2.16,0.3-4.3,0.94-6.36
		c2.35-7.57,7.43-12.29,15.18-13.78c8.65-1.66,16.61,2.51,20.74,10.08c0.36,0.66,0.69,1.34,1.05,2.01
		C174.26,144.73,174.37,144.84,174.58,145.1z"/>
</g>
</svg>
